
<svg xmlns="http://www.w3.org/2000/svg" viewBox="0 0 100 100" fill="none">
  <circle cx="50" cy="50" r="45" fill="#9BBB8B" opacity="0.6"/>
  <circle cx="50" cy="50" r="35" fill="#86B8DC" opacity="0.5"/>
  <path d="M30 60C30 60 40 75 50 75C60 75 70 60 70 60C70 60 60 65 50 65C40 65 30 60 30 60Z" fill="#F5F1E6"/>
  <path d="M35 40C35 35 40 30 45 30C50 30 55 35 55 40" stroke="#718C5A" stroke-width="2"/>
  <path d="M45 40C45 35 50 30 55 30C60 30 65 35 65 40" stroke="#718C5A" stroke-width="2"/>
</svg>
